<svg width="900px" height="600px" viewBox="0 0 900 600" xmlns="http://www.w3.org/2000/svg"
    xmlns:xlink="http://www.w3.org/1999/xlink">
    <title>Shortcuts</title>
    <style>
        #bg{
            fill: aquamarine;
        }
        #letter {
            fill: hsl(60, 30%, 8%);
        }

        #oval {
            stroke-width: 4;
            stroke:  hsla(60, 30%, 8%, 0.2);
        }

        #oval-main {
            stroke-width: 4;
            stroke:  hsla(60, 30%, 8%, 0.2);
        }

        .stroke {
            stroke-width: 22;
            stroke-linecap: round;
            stroke-linejoin: round;
            stroke-miterlimit: 10;
            stroke: darkslategray;
        }

        .anim-stroke-long {
            stroke-dasharray: 1500 1500;
            stroke-dashoffset: 1500;
            animation: stroke-draw 4500ms cubic-bezier(0.35, 0, 0.75, 1) alternate infinite;
        }

        .anim-stroke-short {
            stroke-dasharray: 300 300;
            stroke-dashoffset: 300;
            animation: stroke-draw 1500ms cubic-bezier(0.75, 0, 0.25, 1) alternate infinite;
        }


        @keyframes stroke-draw {
            100% {
                stroke-dashoffset: 0;
            }
        }
    </style>
    <g id="shortcuts" stroke="none" fill="none" fill-rule="evenodd">
        <rect id="bg" width="100%" height="100%" />
        <g id="Group" transform="translate(150, 126)">
            <polyline id="longline" class="stroke anim-stroke-long"
                transform="translate(300, 174) scale(-1, -1) translate(-300, -174) "
                points="600 324 400 324 400 224 200 224 200 124 0 124 0 24 600 24"></polyline>
            <circle id="oval" cx="200" cy="24" r="24" fill="#24ECEA"></circle>
            <circle id="oval" cx="200" cy="124" r="24" fill="#49D8D5"></circle>
            <circle id="oval" cx="400" cy="124" r="24" fill="#6DC5C0"></circle>
            <circle id="oval" cx="400" cy="224" r="24" fill="#92B2AB"></circle>
            <circle id="oval" cx="600" cy="224" r="24" fill="#B69F96"></circle>
            <circle id="oval" cx="600" cy="324" r="24" fill="#DB8B81"></circle>
        </g>
        <circle id="oval-main" fill="salmon" cx="150" cy="450" r="24"></circle>
        <circle id="oval-main" fill="aqua" cx="150" cy="150" r="24"></circle>
        <path id="letter" class="b" fill-rule="nonzero" transform="translate(80, 310)"
            d="M117,113.375 C117.458333,113.291667 117.96875,113.208333 118.53125,113.125 C119.09375,113.041667 119.625,112.9375 120.125,112.8125 C120.625,112.6875 121.072917,112.53125 121.46875,112.34375 C121.864583,112.15625 122.166667,111.916667 122.375,111.625 C124.958333,111.25 127.447917,110.53125 129.84375,109.46875 C132.239583,108.40625 134.541667,107.208333 136.75,105.875 C137.333333,105.375 137.708333,105.041667 137.875,104.875 C138.041667,104.708333 138.208333,104.520833 138.375,104.3125 C138.541667,104.104167 138.791667,103.770833 139.125,103.3125 C139.458333,102.854167 140.083333,102.0625 141,100.9375 C141.041667,100.729167 141.041667,100.447917 141,100.09375 C140.958333,99.7395833 140.791667,99.4791667 140.5,99.3125 C140.75,99.0625 140.854167,98.75 140.8125,98.375 C140.770833,98 140.645833,97.5729167 140.4375,97.09375 C140.229167,96.6145833 140.010417,96.1145833 139.78125,95.59375 C139.552083,95.0729167 139.375,94.5625 139.25,94.0625 C138.833333,93.9791667 138.5625,93.8125 138.4375,93.5625 C138.020833,92.8541667 137.510417,92.21875 136.90625,91.65625 C136.302083,91.09375 135.666667,90.5625 135,90.0625 C134.333333,89.5625 133.677083,89.0520833 133.03125,88.53125 C132.385417,88.0104167 131.8125,87.4375 131.3125,86.8125 C132.0625,85.8541667 132.885417,84.9583333 133.78125,84.125 C134.677083,83.2916667 135.520833,82.40625 136.3125,81.46875 C137.104167,80.53125 137.760417,79.5 138.28125,78.375 C138.802083,77.25 139.041667,75.9166667 139,74.375 C138.916667,74.1666667 138.770833,74.0416667 138.5625,74 C138.354167,73.9583333 138.270833,73.8125 138.3125,73.5625 C138.3125,72.9375 138.15625,72.375 137.84375,71.875 C137.53125,71.375 137.135417,70.9166667 136.65625,70.5 C136.177083,70.0833333 135.677083,69.6770833 135.15625,69.28125 C134.635417,68.8854167 134.1875,68.4583333 133.8125,68 C133.4375,68 133.09375,67.875 132.78125,67.625 C132.46875,67.375 132.135417,67.09375 131.78125,66.78125 C131.427083,66.46875 131.041667,66.1875 130.625,65.9375 C130.208333,65.6875 129.729167,65.5625 129.1875,65.5625 C128.979167,65.6458333 128.958333,65.78125 129.125,65.96875 C129.291667,66.15625 129.291667,66.2291667 129.125,66.1875 C128.583333,65.8125 128.0625,65.59375 127.5625,65.53125 C127.0625,65.46875 126.6875,65.2916667 126.4375,65 C126.145833,65.125 125.791667,65.1979167 125.375,65.21875 C124.958333,65.2395833 124.520833,65.25 124.0625,65.25 C123.604167,65.25 123.166667,65.2604167 122.75,65.28125 C122.333333,65.3020833 121.979167,65.3958333 121.6875,65.5625 C119.479167,65.4375 117.395833,65.59375 115.4375,66.03125 C113.479167,66.46875 111.75,66.9166667 110.25,67.375 C110.041667,67.2083333 109.9375,67.1666667 109.9375,67.25 C109.9375,67.3333333 109.8125,67.3333333 109.5625,67.25 C108.354167,67.5 107.104167,67.7916667 105.8125,68.125 C104.520833,68.4583333 103.302083,68.8958333 102.15625,69.4375 C101.010417,69.9791667 99.9791667,70.6354167 99.0625,71.40625 C98.1458333,72.1770833 97.4791667,73.125 97.0625,74.25 C97.7708333,76 98.6979167,77.5208333 99.84375,78.8125 C100.989583,80.1041667 102.4375,81.1041667 104.1875,81.8125 C104.645833,81.6458333 105.166667,81.5729167 105.75,81.59375 C106.333333,81.6145833 106.8125,81.4583333 107.1875,81.125 C107.270833,80.4166667 107.46875,79.8541667 107.78125,79.4375 C108.09375,79.0208333 108.604167,78.7708333 109.3125,78.6875 C109.479167,79.5208333 109.5,80.25 109.375,80.875 C109.25,81.5 109.072917,82.09375 108.84375,82.65625 C108.614583,83.21875 108.395833,83.7916667 108.1875,84.375 C107.979167,84.9583333 107.895833,85.625 107.9375,86.375 C107.4375,87.5833333 107.104167,88.5833333 106.9375,89.375 C106.770833,90.1666667 106.614583,90.90625 106.46875,91.59375 C106.322917,92.28125 106.125,92.9895833 105.875,93.71875 C105.625,94.4479167 105.1875,95.3333333 104.5625,96.375 C104.5625,96.5833333 104.604167,96.7291667 104.6875,96.8125 C104.770833,96.8958333 104.854167,97 104.9375,97.125 C104.5625,97.4166667 104.291667,97.78125 104.125,98.21875 C103.958333,98.65625 103.822917,99.1041667 103.71875,99.5625 C103.614583,100.020833 103.5,100.46875 103.375,100.90625 C103.25,101.34375 103,101.708333 102.625,102 C102.916667,102.5 103.083333,103.020833 103.125,103.5625 C102.833333,103.645833 102.625,103.791667 102.5,104 C102.375,104.208333 102.28125,104.447917 102.21875,104.71875 C102.15625,104.989583 102.114583,105.28125 102.09375,105.59375 C102.072917,105.90625 102.041667,106.208333 102,106.5 C102.208333,107.166667 102.5,107.760417 102.875,108.28125 C103.25,108.802083 103.333333,109.229167 103.125,109.5625 C103.5,109.645833 103.791667,109.90625 104,110.34375 C104.208333,110.78125 104.270833,111.104167 104.1875,111.3125 C104.604167,111.4375 104.916667,111.572917 105.125,111.71875 C105.333333,111.864583 105.520833,112.03125 105.6875,112.21875 C105.854167,112.40625 106.020833,112.59375 106.1875,112.78125 C106.354167,112.96875 106.604167,113.145833 106.9375,113.3125 C107.1875,113.0625 107.447917,112.958333 107.71875,113 C107.989583,113.041667 108.416667,113.104167 109,113.1875 C109.333333,113.020833 109.65625,112.729167 109.96875,112.3125 C110.28125,111.895833 110.541667,111.5 110.75,111.125 C111.208333,111.458333 111.75,111.8125 112.375,112.1875 C113,112.5625 113.604167,112.854167 114.1875,113.0625 C114.770833,113.270833 115.260417,113.364583 115.65625,113.34375 C116.052083,113.322917 116.270833,113.0625 116.3125,112.5625 C116.520833,112.645833 116.635417,112.78125 116.65625,112.96875 C116.677083,113.15625 116.791667,113.291667 117,113.375 Z M118,81.4375 C117.541667,80.5208333 116.864583,79.7916667 115.96875,79.25 C115.072917,78.7083333 114.208333,78.0833333 113.375,77.375 C115.083333,76.3333333 117.1875,75.5416667 119.6875,75 C122.1875,74.4583333 124.729167,74.2291667 127.3125,74.3125 C126.104167,75.8125 124.75,77.1770833 123.25,78.40625 C121.75,79.6354167 120,80.6458333 118,81.4375 Z M113.5625,103.5625 C114.104167,101.9375 114.666667,100.270833 115.25,98.5625 C115.833333,96.8541667 116.395833,95.2916667 116.9375,93.875 C118.020833,93.7083333 119.104167,93.4583333 120.1875,93.125 C121.270833,92.7916667 122.40625,92.53125 123.59375,92.34375 C124.78125,92.15625 126.03125,92.1458333 127.34375,92.3125 C128.65625,92.4791667 130.104167,93 131.6875,93.875 C131.770833,94.4583333 131.666667,94.9166667 131.375,95.25 C131.083333,95.5833333 130.729167,95.8854167 130.3125,96.15625 C129.895833,96.4270833 129.479167,96.7083333 129.0625,97 C128.645833,97.2916667 128.375,97.6875 128.25,98.1875 C127.041667,98.6458333 125.875,99.1354167 124.75,99.65625 C123.625,100.177083 122.479167,100.697917 121.3125,101.21875 C120.145833,101.739583 118.9375,102.208333 117.6875,102.625 C116.4375,103.041667 115.0625,103.354167 113.5625,103.5625 Z">
        </path>
        <path id="letter" class="a" fill-rule="nonzero" transform="translate(-80, -310)"
            d="M209,422.5625 C210.041667,422.520833 211.041667,422.28125 212,421.84375 C212.958333,421.40625 213.822917,420.84375 214.59375,420.15625 C215.364583,419.46875 216.03125,418.697917 216.59375,417.84375 C217.15625,416.989583 217.645833,416.020833 218.0625,414.9375 C218.1875,413.979167 218.197917,413.052083 218.09375,412.15625 C217.989583,411.260417 217.854167,410.395833 217.6875,409.5625 C217.604167,409.229167 217.552083,408.9375 217.53125,408.6875 C217.510417,408.4375 217.458333,408.166667 217.375,407.875 C218.541667,407.333333 219.59375,406.645833 220.53125,405.8125 C221.46875,404.979167 222.166667,404.125 222.625,403.25 L222.625,403.25 L223.25,402.0625 L222.125,401.625 C222.041667,401.583333 221.9375,401.510417 221.8125,401.40625 C221.6875,401.302083 221.583333,401.208333 221.5,401.125 C221.291667,400.916667 221.03125,400.697917 220.71875,400.46875 C220.40625,400.239583 219.916667,400.104167 219.25,400.0625 C219.083333,399.9375 218.9375,399.8125 218.8125,399.6875 C218.6875,399.5625 218.583333,399.4375 218.5,399.3125 L218.5,399.3125 L218.25,398.5625 L217.4375,398.625 C216.770833,398.666667 216.1875,398.791667 215.6875,399 C215.604167,398.958333 215.354167,398.9375 214.9375,398.9375 C214.520833,397.9375 214.1875,396.885417 213.9375,395.78125 C213.6875,394.677083 213.458333,393.520833 213.25,392.3125 C213.083333,391.479167 212.90625,390.635417 212.71875,389.78125 C212.53125,388.927083 212.333333,388.083333 212.125,387.25 C212.083333,386.208333 212,385.260417 211.875,384.40625 C211.75,383.552083 211.604167,382.6875 211.4375,381.8125 C211.354167,381.4375 211.28125,381.0625 211.21875,380.6875 C211.15625,380.3125 211.083333,379.895833 211,379.4375 L211,379.4375 L210.6875,378.875 C210.229167,378.416667 209.583333,378.052083 208.75,377.78125 C207.916667,377.510417 207.0625,377.270833 206.1875,377.0625 C205.6875,376.895833 205.208333,376.75 204.75,376.625 C204.291667,376.5 203.958333,376.375 203.75,376.25 L203.75,376.25 L202.75,375.625 L202,376.6875 C200.916667,378.354167 199.84375,379.78125 198.78125,380.96875 C197.71875,382.15625 196.5,383.0625 195.125,383.6875 L195.125,383.6875 L194,383.5 C193.708333,383.5 193.46875,383.53125 193.28125,383.59375 C193.09375,383.65625 192.916667,383.729167 192.75,383.8125 L192.75,383.8125 L192.0625,383.75 L191.625,384.375 C190.958333,385.166667 190.40625,385.979167 189.96875,386.8125 C189.53125,387.645833 189.125,388.479167 188.75,389.3125 C188.416667,390.020833 188.072917,390.708333 187.71875,391.375 C187.364583,392.041667 186.895833,392.791667 186.3125,393.625 C186.229167,393.875 186.1875,394.09375 186.1875,394.28125 C186.1875,394.46875 186.208333,394.645833 186.25,394.8125 C185.875,395.645833 185.489583,396.458333 185.09375,397.25 C184.697917,398.041667 184.3125,398.833333 183.9375,399.625 C182.729167,402.083333 181.572917,404.479167 180.46875,406.8125 C179.364583,409.145833 178.291667,411.583333 177.25,414.125 L177.25,414.125 L177.1875,415.4375 L176.375,416.0625 L177.3125,417 C177.479167,417.208333 177.604167,417.583333 177.6875,418.125 C177.770833,418.416667 177.833333,418.697917 177.875,418.96875 C177.916667,419.239583 178.020833,419.541667 178.1875,419.875 L178.1875,419.875 L178.5625,420.375 C178.979167,420.583333 179.34375,420.822917 179.65625,421.09375 C179.96875,421.364583 180.375,421.75 180.875,422.25 L180.875,422.25 L181.6875,422.3125 C181.979167,422.3125 182.239583,422.291667 182.46875,422.25 C182.697917,422.208333 183.083333,422.125 183.625,422 L183.625,422 L184.5625,421.875 L184.75,421.0625 C184.916667,420.895833 185.208333,420.729167 185.625,420.5625 C185.916667,420.4375 186.21875,420.291667 186.53125,420.125 C186.84375,419.958333 187.104167,419.708333 187.3125,419.375 L187.3125,419.375 L187.5625,418.5625 C187.5625,417.9375 187.65625,417.3125 187.84375,416.6875 C188.03125,416.0625 188.229167,415.416667 188.4375,414.75 C188.604167,414.333333 188.760417,413.916667 188.90625,413.5 C189.052083,413.083333 189.166667,412.645833 189.25,412.1875 C189.333333,412.104167 189.4375,412.020833 189.5625,411.9375 C189.6875,411.854167 189.791667,411.75 189.875,411.625 L189.875,411.625 L190.5,411.0625 L190.25,410.375 C190.208333,410.291667 190.21875,410.166667 190.28125,410 C190.34375,409.833333 190.416667,409.708333 190.5,409.625 L190.5,409.625 L191.3125,409.5 L191.5625,408.6875 C191.645833,408.395833 191.739583,408.09375 191.84375,407.78125 C191.947917,407.46875 192.083333,407.145833 192.25,406.8125 C192.291667,407.3125 192.458333,407.791667 192.75,408.25 C192.583333,408.875 192.645833,409.395833 192.9375,409.8125 C193.229167,410.229167 193.479167,410.5625 193.6875,410.8125 L193.6875,410.8125 L193.96875,411.09375 C194.072917,411.197917 194.125,411.291667 194.125,411.375 L194.125,411.375 L194.3125,412.0625 L195,412.125 C195.791667,412.25 196.541667,412.3125 197.25,412.3125 C198.333333,412.3125 199.333333,412.21875 200.25,412.03125 C201.166667,411.84375 202.104167,411.625 203.0625,411.375 C203.729167,411.208333 204.395833,411.052083 205.0625,410.90625 C205.729167,410.760417 206.583333,410.791667 207.625,411 C207.708333,412.333333 207.541667,413.260417 207.125,413.78125 C206.708333,414.302083 205.875,414.729167 204.625,415.0625 L204.625,415.0625 L202.5625,415.625 L203.8125,417.0625 C203.979167,417.229167 204.125,417.385417 204.25,417.53125 C204.375,417.677083 204.520833,417.8125 204.6875,417.9375 C205.145833,418.354167 205.447917,418.6875 205.59375,418.9375 C205.739583,419.1875 205.75,419.479167 205.625,419.8125 L205.625,419.8125 L205.375,420.75 L206.1875,421.125 C206.395833,421.208333 206.666667,421.375 207,421.625 C207.208333,421.791667 207.447917,421.958333 207.71875,422.125 C207.989583,422.291667 208.416667,422.4375 209,422.5625 Z M194.625,402.4375 C195.166667,401.520833 195.729167,400.645833 196.3125,399.8125 L196.3125,399.8125 L196.375,399.75 C197,398.583333 197.791667,397.354167 198.75,396.0625 C199.708333,394.770833 200.708333,393.5625 201.75,392.4375 L201.75,392.4375 L202.0625,391.8125 C202.520833,393.4375 202.947917,395.052083 203.34375,396.65625 C203.739583,398.260417 204.104167,399.833333 204.4375,401.375 C202.979167,401.666667 201.625,401.875 200.375,402 C199.125,402.125 197.770833,402.229167 196.3125,402.3125 C196.020833,402.354167 195.739583,402.375 195.46875,402.375 C195.197917,402.375 194.916667,402.395833 194.625,402.4375 Z">
        </path>
        <line transform="rotate(180, 150, 300)" class="stroke anim-stroke-short" x1="150" y1="450" x2="150" y2="150"
            id="shortline"></line>
    </g>
</svg>