<svg xmlns="http://www.w3.org/2000/svg" viewBox="0 0 469 152"><g fill="none" fill-rule="evenodd"><g fill="#6D40FF" fill-rule="nonzero"><path d="M137.187 44h7.77c.195 0 .382.078.52.217a.745.745 0 0 1 .215.524v55.663a.744.744 0 0 1-.215.524.732.732 0 0 1-.52.217h-7.77a.732.732 0 0 1-.52-.217.744.744 0 0 1-.215-.524V44.741c0-.196.078-.385.216-.524a.732.732 0 0 1 .52-.217ZM157.865 48.487a1.634 1.634 0 0 0-1.225-.558 1.62 1.62 0 0 0-1.225.558l-4.815 5.502a1.41 1.41 0 0 0 .29 2.105c.225.147.486.225.754.225h9.987a1.384 1.384 0 0 0 1.267-.826 1.414 1.414 0 0 0-.223-1.504l-4.81-5.502ZM160.521 61.452h-7.762a.748.748 0 0 0-.745.751v38.213c0 .415.333.751.745.751h7.762a.748.748 0 0 0 .745-.75V62.202a.748.748 0 0 0-.745-.75ZM70.602 60.469c-4.327 0-8.14 1.73-11.337 5.132-3.198-3.405-7.01-5.132-11.338-5.132a15.45 15.45 0 0 0-6.195 1.25 15.552 15.552 0 0 0-5.19 3.632A16.966 16.966 0 0 0 32 77.081v23.336c0 .196.077.385.215.524a.732.732 0 0 0 .52.217h7.686a.732.732 0 0 0 .52-.217.744.744 0 0 0 .215-.524V77.082a7.812 7.812 0 0 1 1.875-5.233 6.65 6.65 0 0 1 2.215-1.583 6.602 6.602 0 0 1 5.315 0 6.65 6.65 0 0 1 2.214 1.583 7.823 7.823 0 0 1 1.875 5.233v23.335c0 .196.077.385.215.524a.732.732 0 0 0 .52.217h7.689a.734.734 0 0 0 .69-.455.747.747 0 0 0 .057-.286V77.082a7.826 7.826 0 0 1 1.872-5.233 6.652 6.652 0 0 1 2.216-1.583 6.604 6.604 0 0 1 5.316 0 6.654 6.654 0 0 1 2.215 1.583 7.825 7.825 0 0 1 1.875 5.233v23.335c0 .196.077.385.215.524a.732.732 0 0 0 .52.217h7.689a.732.732 0 0 0 .52-.217.744.744 0 0 0 .215-.524V77.082a16.974 16.974 0 0 0-4.538-11.73 15.557 15.557 0 0 0-5.168-3.622 15.456 15.456 0 0 0-6.167-1.261ZM130.99 77.18a27.061 27.061 0 0 0-.734-3.525 19.77 19.77 0 0 0-3.477-6.898 18.183 18.183 0 0 0-6.126-4.98c-2.482-1.266-5.547-1.908-9.11-1.908a21.232 21.232 0 0 0-8.365 1.638 19.99 19.99 0 0 0-6.633 4.531 21.146 21.146 0 0 0-4.356 6.804 24.017 24.017 0 0 0-1.446 5.895 22.68 22.68 0 0 0-.135 2.577 25.096 25.096 0 0 0 1.448 8.45 19.103 19.103 0 0 0 3.43 5.99c.324.371.966 1.08 1.309 1.421a18.784 18.784 0 0 0 6.013 3.953c.937.393 1.902.713 2.886.959 1.888.461 3.824.69 5.766.68 4.739 0 8.89-1.09 12.342-3.245l.088-.054a20.02 20.02 0 0 0 4.793-4.252c.142-.173.438-.546.656-.822a.656.656 0 0 0 .14-.495.673.673 0 0 0-.245-.45l-5.64-4.323a.641.641 0 0 0-.907.109l-.189.22c-1.663 1.85-3.043 2.717-4.376 3.538a10.596 10.596 0 0 1-5.69 1.524c-1.16 0-2.318-.138-3.447-.413a17.313 17.313 0 0 1-1.303-.382 15.85 15.85 0 0 1-3.088-1.364 8.688 8.688 0 0 1-.928-.658c-.192-.16-.39-.33-.603-.523a9.488 9.488 0 0 1-2.169-2.7 9.012 9.012 0 0 1-.972-3.215h30.713c.176 0 .343-.07.467-.194a.67.67 0 0 0 .195-.47c0-.124.027-3.03-.015-4.122-.02-.755-.132-2.12-.291-3.295Zm-19.685-9.037c1.983 0 3.676.349 5.021 1.035a9.92 9.92 0 0 1 3.35 2.718 10.888 10.888 0 0 1 1.903 3.798c.116.412.216.84.3 1.274H100.07c.485-2.039 1.5-3.91 2.94-5.423a11.001 11.001 0 0 1 3.654-2.493 11.766 11.766 0 0 1 4.64-.901v-.008ZM191.845 107.606h-9.987a1.384 1.384 0 0 0-1.27.826 1.415 1.415 0 0 0 .226 1.506l4.815 5.502a1.631 1.631 0 0 0 1.225.56 1.617 1.617 0 0 0 1.225-.56l4.815-5.502a1.407 1.407 0 0 0 .225-1.505 1.385 1.385 0 0 0-1.267-.827h-.007ZM206.377 72.949a21.898 21.898 0 0 0-4.444-6.812 20.855 20.855 0 0 0-6.65-4.617 21 21 0 0 0-16.468 0 20.826 20.826 0 0 0-6.65 4.617 21.927 21.927 0 0 0-4.448 6.812 21.566 21.566 0 0 0-1.62 8.363 21.88 21.88 0 0 0 1.62 8.4 20.89 20.89 0 0 0 11.098 11.384 21 21 0 0 0 16.468 0 20.89 20.89 0 0 0 11.097-11.384 21.937 21.937 0 0 0 1.62-8.4 21.574 21.574 0 0 0-1.623-8.363Zm-30.628 8.363a15.226 15.226 0 0 1 .799-5.008 11.406 11.406 0 0 1 2.25-3.914 10.4 10.4 0 0 1 3.55-2.557 12.248 12.248 0 0 1 9.418 0c1.35.591 2.56 1.463 3.553 2.557 1 1.141 1.765 2.472 2.25 3.914a16.145 16.145 0 0 1 0 10.016 11.476 11.476 0 0 1-2.25 3.913 10.472 10.472 0 0 1-3.553 2.557 12.28 12.28 0 0 1-9.418 0 10.466 10.466 0 0 1-3.55-2.557 11.406 11.406 0 0 1-2.25-3.913 15.226 15.226 0 0 1-.808-5.008h.01Z"/></g><path d="M0 31h32v98H0z"/><path fill="none" d="M309 0h160v160H309z"/><g transform="translate(301 -8)"><circle cx="88" cy="88" r="88" fill="none"/><path fill="#7700B3" d="M96.065 26.216c3.725 1.84 6.074 5.496 5.768 9.666-.327 4.44-3.538 8.716-9.377 12.388l-.071.043-.073.042-6.989 3.9v9.708l6.242-3.61c2.105-1.217 4.731.265 4.8 2.672l.002.098v16.862l1.906-1.037 1.535-.838 1.202-.659v-9.179a3.2 3.2 0 0 1 3.101-3.198l.1-.002a3.2 3.2 0 0 1 3.198 3.1l.002.1-.001 5.635 2.006-1.133 1.285-.734.982-.57.867-.51.364-.218.151-.096.36-.233.352-.231.342-.23.333-.23c.055-.037.11-.075.163-.113l.32-.227.309-.227.151-.113.296-.225.286-.224c.235-.187.46-.373.674-.559l.254-.223c3.105-2.783 3.982-5.516 2.406-9.09l-.066-.146c-.617-1.35-1.716-2.092-3.405-2.179-2.341-.12-5.518 1.026-9.221 3.624a3.2 3.2 0 0 1-3.675-5.24c4.779-3.352 9.285-4.978 13.224-4.775 4.064.208 7.287 2.38 8.899 5.911 2.247 4.92 1.7 9.52-1.062 13.478-1.807 2.59-4.086 4.467-7.45 6.617l-.254.161-.197.12-.726.43-.64.375-1.056.611-1.169.668-1.725.974-1.172.656-2.206 1.225v6.82l26.166-14.522a3.2 3.2 0 0 1 4.298 1.154l.053.091a3.2 3.2 0 0 1-1.154 4.299l-.091.052-29.272 16.246v7.11l20.46-11.032a3.2 3.2 0 0 1 4.285 1.207l.051.09a3.2 3.2 0 0 1-1.207 4.285l-.09.05-23.499 12.672v6.89c0 5.582-1.694 9.63-4.922 11.606l-.138.082c-3.068 1.797-6.848 1.32-9.785-.84-2.897-2.131-4.564-5.588-4.098-9.21.506-3.936 3.381-7.436 8.35-10.088l.193-.103 4-2.157v-7.01L60.783 119.25v7.939c0 6.086-2.118 10.63-5.895 13.01l-.146.091c-3.445 2.098-7.79 2.063-11.236.138-3.691-2.064-5.713-5.942-4.83-10.208.901-4.349 4.644-8.49 11.089-12.171l.246-.14 4.372-2.427V64.076a3.2 3.2 0 0 1 1.54-2.736l.1-.058 22.9-12.783v-7.334c0-6.483 1.99-11.316 5.623-14.002l.143-.103c3.382-2.42 7.744-2.637 11.376-.844Zm-41.682 96.586-1.249.693-.22.126-.433.25a39.32 39.32 0 0 0-.211.125l-.414.25-.4.25c-4.014 2.535-6.092 4.993-6.512 7.022-.288 1.39.323 2.562 1.685 3.323 1.484.83 3.37.845 4.785-.017 1.77-1.078 2.929-3.476 2.968-7.426l.001-.209v-4.387Zm46.627-11.598-1.013.547c-3.393 1.773-4.965 3.66-5.182 5.347-.154 1.197.437 2.425 1.542 3.238 1.008.741 2.071.875 2.758.473.858-.503 1.561-1.854 1.804-4.233l.03-.324c.036-.44.057-.911.06-1.417l.001-3.63ZM78.923 55.828l-18.14 10.126v45.976l40.227-22.326v-6.86l-1.23.67-3.803 2.06-1.296.698c-2.102 1.129-4.643-.358-4.712-2.72l-.002-.1V66.67l-4.644 2.686v13.381c0 5.352-2.133 9.078-6.017 10.22l-.14.039c-3.214.884-6.926-.268-9.99-2.699-3.048-2.419-5.112-5.835-5.307-9.378-.234-4.236 2.164-7.978 6.859-10.52l.121-.065 8.074-4.67v-9.836Zm0 17.23L74.01 75.9l-.109.06c-2.728 1.44-3.732 2.981-3.642 4.606.085 1.543 1.181 3.357 2.896 4.718 1.604 1.273 3.335 1.81 4.315 1.54.692-.19 1.237-.955 1.402-2.809l.02-.26.008-.134.013-.28c.005-.144.008-.293.01-.448v-9.835Zm9.49-40.793c-1.842 1.317-3.05 4.15-3.089 8.672V44.926l3.788-2.115.136-.085.195-.126.38-.251c3.674-2.467 5.422-4.862 5.618-6.836l.009-.1c.105-1.431-.722-2.72-2.218-3.458-1.581-.78-3.423-.69-4.82.31Z"/></g><path fill="#121208" d="m253.714 54 19.537 19.729 19.035-19.222L298 60.278 278.965 79.5 298 98.722l-5.714 5.77L273.25 85.27 253.714 105 248 99.23l19.537-19.73L248 59.77l5.714-5.77Z"/></g></svg>