<?xml version="1.0" encoding="UTF-8"?>
<svg width="1280px" height="1280px" viewBox="0 0 1280 1280" version="1.1" xmlns="http://www.w3.org/2000/svg" xmlns:xlink="http://www.w3.org/1999/xlink">
    <title>B18C4106-C851-4CDE-BB9C-5895D97ABB8E@1x</title>
    <defs>
        <radialGradient cx="50%" cy="50%" fx="50%" fy="50%" r="50%" id="radialGradient-1">
            <stop stop-color="#FFFFFF" offset="0%"></stop>
            <stop stop-color="#FFFFFF" offset="52.7426722%"></stop>
            <stop stop-color="#FFBF00" offset="100%"></stop>
        </radialGradient>
    </defs>
    <g id="Page-2" stroke="none" stroke-width="1" fill="none" fill-rule="evenodd">
        <g id="1---Fishbone">
            <rect fill="#FFF2CC" x="0" y="0" width="1280" height="1280"></rect>
            <circle id="Oval" fill="url(#radialGradient-1)" opacity="0.5" style="mix-blend-mode: multiply;" cx="0" cy="1280" r="1818"></circle>
            <g id="Group-3" transform="translate(448.000000, 176.000000)">
                <g id="Group" transform="translate(128.000000, 0.000000)">
                    <polygon id="Rectangle-Copy-4" fill="#595959" points="208 128 256 80 128 80 80 128"></polygon>
                    <polygon id="Rectangle-Copy-5" fill="#9B9B9B" points="1.71862524e-13 48 48 9.99200722e-15 48 80 1.71862524e-13 128"></polygon>
                    <rect id="Rectangle-Copy-3" fill="#DFDFDF" x="48" y="0" width="208" height="80"></rect>
                </g>
                <g id="Group-Copy" transform="translate(128.000000, 160.000000)">
                    <polygon id="Rectangle-Copy-4" fill="#595959" points="208 128 256 80 128 80 80 128"></polygon>
                    <polygon id="Rectangle-Copy-5" fill="#9B9B9B" points="1.71862524e-13 48 48 9.99200722e-15 48 80 1.71862524e-13 128"></polygon>
                    <rect id="Rectangle-Copy-3" fill="#DFDFDF" x="48" y="0" width="208" height="80"></rect>
                </g>
                <g id="Group-Copy-2" transform="translate(128.000000, 320.000000)">
                    <polygon id="Rectangle-Copy-4" fill="#595959" points="208 128 256 80 128 80 80 128"></polygon>
                    <polygon id="Rectangle-Copy-5" fill="#9B9B9B" points="1.71862524e-13 48 48 9.99200722e-15 48 80 1.71862524e-13 128"></polygon>
                    <rect id="Rectangle-Copy-3" fill="#DFDFDF" x="48" y="0" width="208" height="80"></rect>
                </g>
                <g id="Group-2" transform="translate(0.000000, 80.000000)">
                    <rect id="Rectangle" fill="#DFDFDF" x="48" y="0" width="208" height="80"></rect>
                    <polygon id="Rectangle-Copy" fill="#FFFFFF" points="1.71862524e-13 48 48 9.99200722e-15 48 80 1.71862524e-13 128"></polygon>
                    <polygon id="Rectangle-Copy-2" fill="#595959" points="128 128 176 80 48 80 1.71862524e-13 128"></polygon>
                </g>
                <g id="Group-2-Copy" transform="translate(0.000000, 240.000000)">
                    <rect id="Rectangle" fill="#DFDFDF" x="48" y="0" width="208" height="80"></rect>
                    <polygon id="Rectangle-Copy" fill="#FFFFFF" points="1.71862524e-13 48 48 9.99200722e-15 48 80 1.71862524e-13 128"></polygon>
                    <polygon id="Rectangle-Copy-2" fill="#595959" points="128 128 176 80 48 80 1.71862524e-13 128"></polygon>
                </g>
                <g id="Group-Copy-3" transform="translate(128.000000, 480.000000)">
                    <polygon id="Rectangle-Copy-4" fill="#595959" points="208 128 256 80 128 80 80 128"></polygon>
                    <polygon id="Rectangle-Copy-5" fill="#9B9B9B" points="1.71862524e-13 48 48 9.99200722e-15 48 80 1.71862524e-13 128"></polygon>
                    <rect id="Rectangle-Copy-3" fill="#DFDFDF" x="48" y="0" width="208" height="80"></rect>
                </g>
                <g id="Group-2-Copy-2" transform="translate(0.000000, 400.000000)">
                    <rect id="Rectangle" fill="#DFDFDF" x="48" y="0" width="208" height="80"></rect>
                    <polygon id="Rectangle-Copy" fill="#FFFFFF" points="1.71862524e-13 48 48 9.99200722e-15 48 80 1.71862524e-13 128"></polygon>
                    <polygon id="Rectangle-Copy-2" fill="#595959" points="128 128 176 80 48 80 1.71862524e-13 128"></polygon>
                </g>
                <g id="Group-Copy-4" transform="translate(128.000000, 640.000000)">
                    <polygon id="Rectangle-Copy-4" fill="#595959" points="208 128 256 80 128 80 80 128"></polygon>
                    <polygon id="Rectangle-Copy-5" fill="#9B9B9B" points="1.71862524e-13 48 48 9.99200722e-15 48 80 1.71862524e-13 128"></polygon>
                    <rect id="Rectangle-Copy-3" fill="#DFDFDF" x="48" y="0" width="208" height="80"></rect>
                </g>
                <g id="Group-2-Copy-3" transform="translate(0.000000, 560.000000)">
                    <rect id="Rectangle" fill="#DFDFDF" x="48" y="0" width="208" height="80"></rect>
                    <polygon id="Rectangle-Copy" fill="#FFFFFF" points="1.71862524e-13 48 48 9.99200722e-15 48 80 1.71862524e-13 128"></polygon>
                    <polygon id="Rectangle-Copy-2" fill="#595959" points="128 128 176 80 48 80 1.71862524e-13 128"></polygon>
                </g>
                <g id="Group-Copy-5" transform="translate(128.000000, 800.000000)">
                    <polygon id="Rectangle-Copy-4" fill="#595959" points="208 128 256 80 48 80 1.17239551e-13 128"></polygon>
                    <polygon id="Rectangle-Copy-5" fill="#9B9B9B" points="1.71862524e-13 48 48 9.99200722e-15 48 80 1.71862524e-13 128"></polygon>
                    <rect id="Rectangle-Copy-3" fill="#DFDFDF" x="48" y="0" width="208" height="80"></rect>
                </g>
                <g id="Group-2-Copy-4" transform="translate(0.000000, 720.000000)">
                    <rect id="Rectangle" fill="#DFDFDF" x="48" y="0" width="208" height="80"></rect>
                    <polygon id="Rectangle-Copy" fill="#FFFFFF" points="1.71862524e-13 48 48 9.99200722e-15 48 80 1.71862524e-13 128"></polygon>
                    <polygon id="Rectangle-Copy-2" fill="#595959" points="128 128 176 80 48 80 1.71862524e-13 128"></polygon>
                </g>
            </g>
        </g>
    </g>
</svg>