<svg xmlns="http://www.w3.org/2000/svg" xmlns:xlink="http://www.w3.org/1999/xlink" viewBox="0 0 1280 1280"><defs><radialGradient id="b" cx="50%" cy="50%" r="50%" fx="50%" fy="50%"><stop offset="0%" stop-color="#FFF"/><stop offset="52.743%" stop-color="#FFF"/><stop offset="100%" stop-color="#FFBF00"/></radialGradient><path id="a" d="M0 0h1280v1280H0z"/></defs><g fill="none" fill-rule="evenodd"><mask id="c" fill="#fff"><use xlink:href="#a"/></mask><use xlink:href="#a" fill="#FFF2CC" fill-rule="nonzero"/><circle cy="1280" r="1818" fill="url(#b)" fill-rule="nonzero" mask="url(#c)" opacity=".5" style="mix-blend-mode:multiply"/><path fill="#595959" fill-rule="nonzero" d="m712 328 96-48H664l-96 48z" mask="url(#c)"/><path fill="#9B9B9B" fill-rule="nonzero" d="m568 232 96-48v96l-96 48z" mask="url(#c)"/><path fill="#FFF" fill-rule="nonzero" d="m472 328 96-48v96l-96 48z" mask="url(#c)"/><path fill="#595959" fill-rule="nonzero" d="m616 424 96-48H568l-96 48zM712 520l96-48H664l-96 48z" mask="url(#c)"/><path fill="#9B9B9B" fill-rule="nonzero" d="m568 424 96-48v96l-96 48z" mask="url(#c)"/><path fill="#FFF" fill-rule="nonzero" d="m472 520 96-48v96l-96 48z" mask="url(#c)"/><path fill="#595959" fill-rule="nonzero" d="m616 616 96-48H568l-96 48zM712 712l96-48H664l-96 48z" mask="url(#c)"/><path fill="#9B9B9B" fill-rule="nonzero" d="m568 616 96-48v96l-96 48z" mask="url(#c)"/><path fill="#FFF" fill-rule="nonzero" d="m472 712 96-48v96l-96 48z" mask="url(#c)"/><path fill="#595959" fill-rule="nonzero" d="m616 808 96-48H568l-96 48zM712 904l96-48H664l-96 48z" mask="url(#c)"/><path fill="#9B9B9B" fill-rule="nonzero" d="m568 808 96-48v96l-96 48z" mask="url(#c)"/><path fill="#FFF" fill-rule="nonzero" d="m472 904 96-48v96l-96 48z" mask="url(#c)"/><path fill="#595959" fill-rule="nonzero" d="m616 1000 96-48H568l-96 48zM712 1096l96-48H664l-96 48z" mask="url(#c)"/><path fill="#9B9B9B" fill-rule="nonzero" d="m568 1000 96-48v96l-96 48z" mask="url(#c)"/><path fill="#D8D8D8" d="M808 184v96h-96v96h96v96h-96v96h96v96h-96v96h96v96h-96v96h96v96H664v-96h-96v-96h96v-96h-96v-96h96v-96h-96v-96h96v-96h-96v-96h96v-96h144Z" mask="url(#c)"/></g></svg>