<?xml version="1.0" encoding="UTF-8"?>
<svg width="1134px" height="1050px" viewBox="0 0 1134 1050" version="1.1" xmlns="http://www.w3.org/2000/svg" xmlns:xlink="http://www.w3.org/1999/xlink">
    <title>kof-icon</title>
    <g id="kof-icon" stroke="none" stroke-width="1" fill="none" fill-rule="evenodd" opacity="0.99">
        <g id="kof-script-24-3d" transform="translate(0, 1)">
            <path d="M783.713927,17.789307 C815.575437,29.7148843 843.844168,46.8978687 866.874891,68.6005872 C868.648218,70.2714058 884.543565,86.1444891 914.560932,116.219837 C959.576968,159.741273 981.227206,218.416152 972.895761,280.463905 L972.631344,282.364367 C969.347318,305.158707 963.647426,326.605989 955.689357,346.645281 L955.09107,348.13282 L956.309348,348.533163 C984.961043,358.099337 1011.20521,373.340068 1032.89993,394.27542 C1072.34595,434.316968 1093.1545,455.70927 1095.32558,458.452326 C1120.32066,490.050884 1132.88601,526.203757 1133,564.007122 C1133.08476,596.142355 1124.25456,627.711096 1108.53444,657.640012 C1083.44955,705.398165 1039.96905,748.873178 999.739191,769.338439 C970.914081,783.997282 938.619689,784.679936 911.717204,771.97738 C899.981763,842.406002 883.678293,909.14501 863.799268,970.05689 C850.427455,1011.02821 819.341354,1039.51665 780.001512,1047.06985 C745.098124,1053.77125 708.691538,1042.73502 683.021056,1018.43313 C682.25686,1017.70762 666.917865,1002.36476 637.004068,972.404546 L636.091455,971.524097 C608.65164,944.685588 597.858857,906.181899 607.719474,867.869295 C601.177111,864.303774 595.013759,859.979392 589.382119,854.946699 C588.193677,853.88435 585.069957,850.809202 580.010957,845.721253 C577.846281,848.422211 576.302494,850.314186 575.379596,851.397181 L574.685121,852.206982 C527.891768,906.424192 469.017201,935.741938 407.523451,937.018847 C351.005381,938.192437 297.098447,915.214041 258.84017,875.094735 L258.51786,874.753463 L213.102283,829.330441 C187.000153,801.938804 169.487205,767.909007 162.972809,731.077529 L162.787416,730.006502 L162.251263,729.976469 C130.119242,727.977186 98.8830834,713.897077 76.7886275,690.864514 L33.8858678,647.958952 L33.5653424,647.648598 C0.869856986,615.500039 -9.88544889,568.441413 9.99648871,523.984129 L10.6146988,522.624023 C24.3810178,492.819048 34.2239926,453.647941 39.6398036,410.503786 L39.8167423,409.080019 C44.1141979,374.14831 45.0889333,338.93605 43.3149948,318.075084 C40.1790025,281.199179 54.5748316,244.926247 82.4616079,221.221867 C112.75627,195.47073 154.058075,188.457644 193.928517,202.453359 L199.076499,204.253953 C262.466127,226.344898 322.073471,244.120624 377.639441,256.601901 L381.171272,257.38841 L381.279451,256.775893 C386.012539,230.122621 393.122642,205.92264 403.137861,183.555388 L403.707867,182.291271 C439.382462,103.725662 500.422614,47.6043236 575.289237,19.5360367 C643.454896,-6.01998855 719.092361,-6.39907906 783.713927,17.789307 Z" id="Path" fill="#FAEBD7" fill-rule="nonzero"></path>
            <g transform="translate(65, 65)" fill="#1D3030" id="Shape">
                <g transform="translate(0, -0)">
                    <path d="M740.427468,498.125715 L695,452.670417 L727.612162,443.231165 C730.718584,435.021052 736.268022,427.156848 744.769438,420.358912 C788.989438,384.997773 856.937586,372.600597 912.698732,389.663553 L923.815159,377 L967.392814,420.677042 C969.209717,422.390757 970.978435,424.163606 972.696547,425.993162 C975.012412,428.4601 977.230447,431.032707 979.34464,433.704009 C1046.3556,518.422485 954.760033,621.219193 905.22577,646.418819 C889.946388,654.189411 875.75864,651.335374 867.288815,643.389734 C866.880255,643.004245 866.482273,642.605775 866.095387,642.194844 L820.906605,596.997932 L897.942352,485.066402 C871.462301,474.36871 832.507422,477.8963 805.574571,499.71256 C781.291831,519.382203 756.145611,513.910443 740.427468,498.125715 L740.427468,498.125715 Z M58.4146584,580.184637 L15,536.802931 L72.487504,467.753181 C90.0020934,399.083189 91.9590327,326.410726 89.1542851,293.441755 C86.373039,260.743822 114.409641,230.982074 153.501775,244.700487 C228.793253,271.121584 326.548668,301.326953 419.987522,315.075777 C421.473028,268.697825 427.716012,225.791672 443.92539,190.105476 C504.302879,57.180032 644.751421,23.2823844 741.970511,59.6608113 C746.321308,61.2870887 750.623859,63.0611809 754.871788,64.9804596 C755.776772,60.4948336 756.709817,55.9050498 757.667416,51.2084474 L803.772471,97.2997751 C834.363021,126.346864 849.856481,165.194286 843.647872,208.298491 C825.597308,333.572902 717.585061,386.790293 613.294472,404.715691 L654.523841,446.152991 C664.899583,454.891599 671.329175,469.188201 669.27367,489.29445 C663.489492,545.858954 652.163166,636.348095 620.411572,726.455959 C610.818044,753.677626 583.143085,754.939684 568.037225,741.444792 C567.167754,740.667825 566.338779,739.839115 565.554132,738.962492 L521.862717,695.303666 C547.490941,627.916639 558.190442,618.068029 573.526056,566.840279 C574.090443,534.704951 573.688812,505.5997 573.451342,487.812673 C573.120216,463.024647 586.775997,446.814811 603.893867,439.763635 C606.166849,428.969622 608.555585,417.435862 611.074105,405.091647 C573.309982,411.405736 536.119366,413.121298 503.959125,411.986966 C504.479315,424.027071 532.405776,661.840136 460.875593,744.69497 C386.359314,831.005257 290.684309,817.898106 240.472452,764.3633 L195.533001,719.457622 C195.533001,719.457622 147.256336,528.850068 335.242123,483.538023 L381.348231,529.629351 L381.316311,529.651399 C395.897069,545.670405 390.232153,574.84294 359.588286,583.556459 C300.308704,600.412529 282.128706,654.009297 294.021173,684.180834 C310.257911,725.376367 379.13067,730.23833 407.256017,671.628684 C441.428969,600.41481 422.622498,427.733034 421.540376,405.890316 C372.88488,399.88718 218.00641,376.110321 186.829024,359.350806 C189.227932,436.628639 166.074382,546.453489 152.368441,572.377367 C131.911954,611.070452 81.7421889,605.391194 58.4146584,580.184637 Z M737,157.049561 C682.212875,100.496135 506.975294,112.090389 500,323.321641 C566.300473,331.273163 679.268724,311.232417 728.832693,257.610705 L727.208333,255.979477 C727.208333,255.979477 717.20662,268.851355 737,157.049561 Z M660.54154,904.554381 L617,860.837673 C658.223194,752.068739 695.582479,748.779624 741.25354,524 L784.742628,567.858159 C791.732633,573.484637 796.110565,583.161098 794.753826,597.167404 C783.948866,708.853954 761.720022,806.793525 736.309134,884.895741 C723.09841,925.498247 683.099079,926.068614 662.268935,906.288296 C661.677984,905.725534 661.10102,905.147562 660.54154,904.554381 L660.54154,904.554381 Z" fill-opacity="0.35"></path>
                    <path d="M859.393439,600.417473 C823.914815,618.498799 794.344038,579.067424 828.746916,551.848747 C954.062674,452.701414 823.459287,402.085501 759.913128,453.664482 C705.71931,497.65159 647.222504,415.945694 699.212268,374.285558 C764.033905,322.343047 879.941257,319.934234 933.385206,387.634906 C1000.28125,472.380368 908.842758,575.20982 859.393439,600.417473 Z M140.732701,313.351053 C143.13196,390.628946 119.975032,500.453883 106.26709,526.377781 C75.5492887,584.471625 -22.1582977,542.540873 4.58225698,484.673591 C42.1642028,403.344566 46.7413516,290.900477 43.0437086,247.44195 C40.2620566,214.743991 68.3027503,184.982219 107.400589,198.700643 C182.703055,225.121761 280.472736,255.327154 373.925227,269.075989 C375.41095,222.698001 381.654844,179.791814 397.866588,144.10559 C458.252888,11.1800408 598.721927,-22.7176335 695.955205,13.660822 C765.270225,39.5934628 807.214267,95.8941956 797.647405,162.298619 C772.925118,333.85 579.479449,370.274832 457.909085,365.987255 C458.429351,378.027368 486.359887,615.840621 414.819264,698.69552 C309.743405,820.385327 162.601769,744.44514 160.13796,636.219824 C157.409984,516.386231 274.822429,476.49492 301.528954,473.299099 C349.609189,467.545709 358.642805,524.727221 313.517176,537.556882 C254.228943,554.412966 236.046292,608.009776 247.940494,638.181337 C264.179602,679.376902 333.062412,684.238868 361.191863,625.629177 C395.369802,554.415246 376.560587,381.733335 375.478307,359.8906 C326.815711,353.887459 171.914638,330.110581 140.732701,313.351053 Z M453,277.321614 C542.285929,288.003283 715.999585,248.171362 706.636235,144.276483 C698.697742,56.153955 461.154327,30.9969926 453,277.321614 L453,277.321614 Z M687.560098,545.868381 C694.251262,506.024535 754.307002,504.304804 749.753926,551.260215 C738.923283,662.914596 716.641601,760.825957 691.170312,838.905678 C670.402817,902.56688 583.578914,867.788332 608.433312,810.460179 C644.493395,727.290451 670.760333,645.952974 687.560098,545.868381 L687.560098,545.868381 Z M574.645579,680.626104 C559.781871,722.699811 501.583849,702.73836 513.629498,662.116256 C529.877626,607.327716 528.189814,487.60157 527.58022,442.068713 C526.670398,374.146199 631.091104,370.65475 623.617064,443.549957 C617.819937,500.094102 606.468255,590.550673 574.645579,680.626104 Z"></path>
                </g>
            </g>
        </g>
    </g>
</svg>