<svg xmlns="http://www.w3.org/2000/svg" viewBox="0 0 256 256">
    <path
        d="M228.309 38.904a23.656 23.656 0 0 0-21.325-13.58H49.034c-13.091 0-23.695 10.603-23.695 23.694V206.97a23.656 23.656 0 0 0 13.58 21.325l13.432-13.432-3.317.015a7.906 7.906 0 0 1-7.908-7.908v-76.917l2.132-.947a35.591 35.591 0 0 1 34.83 9.077l25.516 25.516 11.21-11.21-25.5-25.516a51.583 51.583 0 0 0-48.189-13.506V49.018a7.906 7.906 0 0 1 7.908-7.907h157.95c2.104 0 4.103.844 5.584 2.325a7.892 7.892 0 0 1 2.325 5.583v3.317l13.417-13.432Zm-13.417 35.778V185.26l-30.965-30.966c-12.929-12.276-32.994-12.987-46.752-1.658l-22.346 22.346 2.058 2.058h-.014a13.589 13.589 0 0 0 8.93 3.244 14.309 14.309 0 0 0 8.677-3.007l1.422-1.895 9.64-9.64c7.835-7.435 20.126-7.435 27.96 0l39.495 39.494a15.828 15.828 0 0 1-13.905 9.641H74.699l-15.8 15.801 140.192-.015a31.513 31.513 0 0 0 22.332-9.255 31.513 31.513 0 0 0 9.256-22.332V58.883l-15.787 15.799Z" />
    <path
        d="M163.55 56.911c-15.83.015-29.751 10.5-34.12 25.723-4.383 15.21 1.837 31.484 15.239 39.909l11.684-11.684h.015a19.784 19.784 0 0 1-12.129-14.35 19.704 19.704 0 0 1 5.376-17.993 19.705 19.705 0 0 1 17.993-5.375 19.784 19.784 0 0 1 14.35 12.128l11.684-11.684v-.015a35.581 35.581 0 0 0-30.092-16.66v.001Zm35.541 33.646-37.436 37.437h1.895c19.607-.045 35.497-15.934 35.541-35.541.045-.637.045-1.26 0-1.896Z" />
    <path d="M244.834 0 256 11.166 11.166 256 0 244.834z" />
</svg>