<?xml version="1.0" encoding="UTF-8" standalone="no"?>
<!DOCTYPE svg PUBLIC "-//W3C//DTD SVG 1.1//EN" "http://www.w3.org/Graphics/SVG/1.1/DTD/svg11.dtd">
<svg width="100%" height="100%" viewBox="0 0 1600 4039" version="1.1" xmlns="http://www.w3.org/2000/svg" xmlns:xlink="http://www.w3.org/1999/xlink" xml:space="preserve" xmlns:serif="http://www.serif.com/" style="fill-rule:evenodd;clip-rule:evenodd;stroke-linejoin:round;stroke-miterlimit:2;">
    <g transform="matrix(1,0,0,1,-1600,0)">
        <g id="love-nazi" transform="matrix(2.01258,0,0,1.86363,-6025.66,-77.6512)">
            <rect x="3789" y="41.667" width="795" height="2167.81" style="fill:rgb(242,102,73);"/>
            <clipPath id="_clip1">
                <rect x="3789" y="41.667" width="795" height="2167.81"/>
            </clipPath>
            <g clip-path="url(#_clip1)">
                <g>
                    <g transform="matrix(2.43865,0,0,2.63724,-101.597,41.6667)">
                        <rect x="1595.39" y="-0" width="326" height="822" style="fill:rgb(242,102,73);"/>
                    </g>
                    <g transform="matrix(4.8773,0,0,5.27449,1438.68,694.879)">
                        <path d="M510.236,239.758L510.236,258.833L573.352,258.833L573.352,217.501L596.605,217.501L596.605,258.833L616.536,258.833L616.536,198.426L510.236,198.426L510.236,217.501L553.421,217.501L553.421,239.758L510.236,239.758Z" style="fill:rgb(35,31,32);fill-rule:nonzero;"/>
                    </g>
                    <g transform="matrix(4.8773,0,0,5.27449,1438.68,-116.825)">
                        <path d="M601.79,281.738L616.445,281.738L616.445,265.907L562.065,265.907L562.065,281.738L576.72,281.738L576.72,329.413L562.065,329.413L562.065,345.244L616.445,345.244L616.445,329.413L601.79,329.413L601.79,281.738Z" style="fill:rgb(35,31,32);fill-rule:nonzero;"/>
                    </g>
                    <g transform="matrix(4.8773,0,0,5.27449,1438.68,-116.831)">
                        <path d="M558.144,265.908L558.144,281.739L538.878,329.414L558.307,329.414L558.307,345.244L510.236,345.244L510.236,333.761L530.215,281.739L510.236,281.739L510.236,265.908L558.144,265.908Z" style="fill:rgb(35,31,32);fill-rule:nonzero;"/>
                    </g>
                    <g transform="matrix(4.8773,0,0,5.27449,1438.68,-1032.67)">
                        <path d="M604.146,352.726L616.536,432.062L594.545,432.062L593.384,417.819L585.542,417.819L584.351,432.062L562.065,432.062L573.114,352.726L604.146,352.726M592.722,403.718C591.661,394.772 590.592,383.64 589.522,370.326C587.375,385.61 586.024,396.738 585.487,403.718L592.722,403.718Z" style="fill:rgb(35,31,32);fill-rule:nonzero;"/>
                    </g>
                    <g transform="matrix(4.8773,0,0,5.27449,1438.68,-1032.67)">
                        <path d="M558.307,352.726L558.307,432.062L539.406,432.062L528.246,395.996L528.246,432.062L510.236,432.062L510.236,352.726L528.246,352.726L540.301,388.452L540.301,352.726L558.307,352.726Z" style="fill:rgb(35,31,32);fill-rule:nonzero;"/>
                    </g>
                    <g transform="matrix(4.8773,0,0,5.27449,1438.68,-1776.08)">
                        <path d="M595.382,440.403L616.536,440.403L616.536,449.355L607.604,449.355L607.604,457.906L615.188,457.906L615.188,466.456L607.604,466.456L607.604,476.377L616.536,476.377L616.536,485.33L595.382,485.33L595.382,440.403Z" style="fill:rgb(35,31,32);fill-rule:nonzero;"/>
                    </g>
                    <g transform="matrix(4.8773,0,0,5.27449,1438.68,-1776.08)">
                        <path d="M593.317,440.403L587.06,485.33L568.646,485.33L561.546,440.403L574.439,440.403C575.909,452.794 576.962,463.282 577.6,471.868C578.265,463.194 578.923,455.499 579.586,448.787L580.423,440.403L593.317,440.403Z" style="fill:rgb(35,31,32);fill-rule:nonzero;"/>
                    </g>
                    <g transform="matrix(4.8773,0,0,5.27449,1438.68,-1775.65)">
                        <path d="M559.471,476.248C559.249,478.123 558.554,479.839 557.384,481.393C556.214,482.945 554.634,484.137 552.644,484.97C550.652,485.801 548.335,486.217 545.686,486.217C543.173,486.217 540.918,485.823 538.917,485.04C536.915,484.253 535.309,483.074 534.092,481.503C532.87,479.933 532.148,478.222 531.917,476.374C531.686,474.524 531.68,451.281 531.901,449.404C532.123,447.528 532.818,445.814 533.986,444.261C535.156,442.708 536.736,441.514 538.729,440.682C540.719,439.851 543.036,439.435 545.686,439.435C548.198,439.435 550.451,439.828 552.455,440.612C554.456,441.398 556.063,442.577 557.278,444.15C558.495,445.721 559.224,447.433 559.454,449.28C559.686,451.128 559.691,474.373 559.471,476.248M547.582,451.904C547.582,449.812 547.461,448.476 547.224,447.891C546.981,447.309 546.492,447.016 545.744,447.016C545.11,447.016 544.626,447.253 544.29,447.725C543.958,448.196 543.789,449.59 543.789,451.904L543.789,472.891C543.789,475.497 543.9,477.11 544.122,477.72C544.343,478.33 544.854,478.635 545.658,478.635C546.481,478.635 547.008,478.285 547.238,477.579C547.465,476.878 547.582,475.202 547.582,472.556L547.582,451.904Z" style="fill:rgb(35,31,32);fill-rule:nonzero;"/>
                    </g>
                    <g transform="matrix(4.8773,0,0,5.27449,1438.68,-1776.08)">
                        <path d="M522.457,440.403L522.457,476.377L529.873,476.377L529.873,485.33L510.236,485.33L510.236,440.403L522.457,440.403Z" style="fill:rgb(35,31,32);fill-rule:nonzero;"/>
                    </g>
                    <g transform="matrix(4.8773,0,0,5.27449,1438.68,-2405.71)">
                        <path d="M616.536,511.424L616.536,492.349L553.421,492.349L553.421,533.681L530.167,533.681L530.167,492.349L510.236,492.349L510.236,552.756L616.536,552.756L616.536,533.681L573.352,533.681L573.352,511.424L616.536,511.424Z" style="fill:rgb(35,31,32);fill-rule:nonzero;"/>
                    </g>
                    <g transform="matrix(4.8773,0,0,5.27449,1438.68,-855.408)">
                        <path d="M503.149,191.338L623.622,191.338L623.622,559.842L503.149,559.842L503.149,191.338M488.977,177.165L488.977,574.016L637.795,574.016L637.795,177.165L488.977,177.165Z" style="fill:rgb(35,31,32);fill-rule:nonzero;"/>
                    </g>
                </g>
            </g>
        </g>
    </g>
</svg>
